<svg xmlns="http://www.w3.org/2000/svg" 
width="257" 
height="81" 
fill="none"><path 
fill="#FFB895" d="M65.128 1.56 54.468.017c-.315-.061-.63.062-.756.186L49.17 6.009c-.315.37-.378.864-.252 1.297.126.432-.252.803-.694.741l-3.721-.803c-.568-.123-1.199.062-1.577.556l-14.76 18.533c-.252.37-.757.494-1.198.309l-5.614-2.471a1.48 1.48 0 0 0-1.514.123l-2.838 1.915a1.596 1.596 0 0 1-1.577.124l-1.388-.68c-.883-.432-1.955.062-2.207.989l-1.01 4.386c-.252 1.05.19 2.1 1.136 2.656l2.145 1.297 6.875 4.14 3.343 2.038a2.608 2.608 0 0 0 2.964-.247l5.614-4.819c.442-.37 1.135-.494 1.64-.185l1.703.865a1.454 1.454 0 0 0 1.703-.247l2.838-2.595c.442-.432 1.136-.494 1.64-.247l4.226 1.915c.631.309 1.388.123 1.83-.432l1.955-2.471L65.255 14.1c.693-.865.252-2.162-.883-2.41l-3.28-.74c-.694-.124-1.01-.989-.505-1.483l5.11-6.24c.504-.74.188-1.544-.569-1.667ZM16.244 38.995c-.315-.185-.63.124-.504.433l1.577 4.077c.126.309.126.618.063.927l-1.388 5.312c-.063.37.063.742.315.927l3.974 3.027c.379.247.883.247 1.199-.062l4.162-3.583c.253-.185.568-.309.82-.37l4.731-.495c.316-.062.442-.494.126-.68l-15.075-9.513ZM14.857 52.71a1.024 1.024 0 0 0-.946-.124l-3.343 1.606c-.19.062-.315.247-.442.432L3 71.86v.123c.063.062.126.124.252.124l1.64-.618h.19c.062.062.126.185.062.247L.034 79.952c-.126.186.127.37.253.186l18.48-18.162c.19-.186.253-.371.316-.618l.379-4.695c0-.309-.127-.556-.316-.741l-4.289-3.213Z"/><path fill="#ABA99D" d="M101.368 32.59V4.077h9.881c3.423 0 6.019.666 7.788 1.998 1.77 1.318 2.654 3.257 2.654 5.816 0 1.397-.355 2.63-1.065 3.701-.711 1.057-1.699 1.834-2.964 2.33 1.446.366 2.583 1.104 3.409 2.213.84 1.11 1.26 2.468 1.26 4.074 0 2.741-.866 4.817-2.596 6.227-1.731 1.41-4.198 2.128-7.401 2.154h-10.966Zm5.812-12.416v7.697h4.979c1.369 0 2.435-.327 3.197-.98.775-.665 1.163-1.58 1.163-2.741 0-2.611-1.337-3.936-4.011-3.976h-5.328Zm0-4.151h4.301c2.932-.052 4.398-1.234 4.398-3.545 0-1.292-.374-2.22-1.124-2.78-.736-.575-1.905-.862-3.506-.862h-4.069v7.187ZM125.469 21.8c0-2.102.401-3.976 1.201-5.62.801-1.646 1.951-2.918 3.449-3.82 1.511-.9 3.261-1.35 5.25-1.35 2.829 0 5.134.874 6.917 2.624 1.795 1.75 2.796 4.125 3.003 7.128l.039 1.45c0 3.25-.898 5.861-2.693 7.832-1.796 1.959-4.205 2.938-7.227 2.938-3.022 0-5.438-.98-7.246-2.938-1.795-1.958-2.693-4.621-2.693-7.99V21.8Zm5.599.411c0 2.01.375 3.551 1.124 4.622.749 1.057 1.821 1.586 3.216 1.586 1.356 0 2.415-.522 3.177-1.567.762-1.057 1.143-2.741 1.143-5.052 0-1.971-.381-3.499-1.143-4.582-.762-1.084-1.834-1.626-3.216-1.626-1.369 0-2.428.542-3.177 1.626-.749 1.07-1.124 2.735-1.124 4.993ZM147.904 21.8c0-2.102.401-3.976 1.201-5.62.801-1.646 1.951-2.918 3.449-3.82 1.511-.9 3.261-1.35 5.25-1.35 2.829 0 5.134.874 6.917 2.624 1.795 1.75 2.796 4.125 3.003 7.128l.039 1.45c0 3.25-.898 5.861-2.693 7.832-1.796 1.959-4.205 2.938-7.227 2.938-3.022 0-5.437-.98-7.246-2.938-1.795-1.958-2.693-4.621-2.693-7.99V21.8Zm5.599.411c0 2.01.375 3.551 1.124 4.622.749 1.057 1.821 1.586 3.216 1.586 1.356 0 2.415-.522 3.177-1.567.762-1.057 1.144-2.741 1.144-5.052 0-1.971-.382-3.499-1.144-4.582-.762-1.084-1.834-1.626-3.216-1.626-1.369 0-2.428.542-3.177 1.626-.749 1.07-1.124 2.735-1.124 4.993ZM182.564 26.735c0-.692-.342-1.234-1.027-1.625-.671-.405-1.756-.764-3.254-1.078-4.986-1.057-7.479-3.198-7.479-6.423 0-1.88.769-3.447 2.306-4.7 1.55-1.266 3.571-1.9 6.064-1.9 2.661 0 4.785.634 6.374 1.9 1.601 1.266 2.402 2.911 2.402 4.935h-5.599c0-.81-.258-1.475-.775-1.997-.516-.536-1.324-.803-2.422-.803-.942 0-1.672.215-2.189.646-.516.43-.775.98-.775 1.645 0 .627.291 1.136.872 1.527.594.38 1.589.712 2.984 1 1.395.273 2.57.587 3.526.94 2.957 1.096 4.436 2.995 4.436 5.698 0 1.932-.82 3.499-2.46 4.7-1.64 1.188-3.759 1.782-6.355 1.782-1.756 0-3.319-.313-4.688-.94-1.356-.64-2.422-1.508-3.197-2.605-.775-1.11-1.162-2.304-1.162-3.583h5.308c.052 1.005.42 1.775 1.104 2.31.685.536 1.602.803 2.751.803 1.072 0 1.88-.202 2.422-.607.556-.417.833-.96.833-1.625ZM198.335 6.192v5.21h3.584v4.15h-3.584v10.576c0 .783.148 1.345.445 1.684.297.34.866.51 1.705.51.62 0 1.169-.046 1.647-.138v4.289a11.41 11.41 0 0 1-3.39.509c-3.927 0-5.929-2.004-6.006-6.012V15.553h-3.061V11.4h3.061V6.192h5.599ZM210.947 32.59h-5.618V11.401h5.618v21.19Zm-5.948-26.672c0-.849.278-1.547.833-2.096.569-.548 1.337-.822 2.306-.822.956 0 1.718.274 2.286.822.568.549.852 1.247.852 2.096 0 .862-.29 1.567-.871 2.115-.569.548-1.324.822-2.267.822-.943 0-1.705-.274-2.286-.822-.569-.548-.853-1.253-.853-2.115ZM220.731 11.401l.174 2.448c1.499-1.893 3.507-2.84 6.026-2.84 2.221 0 3.874.66 4.959 1.979 1.085 1.318 1.641 3.29 1.666 5.914V32.59h-5.599V19.04c0-1.201-.258-2.07-.775-2.605-.516-.548-1.375-.822-2.576-.822-1.576 0-2.758.679-3.546 2.036V32.59h-5.599V11.401h5.27ZM237.005 21.84c0-3.252.762-5.87 2.286-7.854 1.537-1.984 3.604-2.976 6.2-2.976 2.299 0 4.088.796 5.366 2.389l.233-1.998h5.076v20.484c0 1.854-.42 3.467-1.259 4.837-.827 1.371-1.996 2.416-3.507 3.134-1.511.718-3.281 1.077-5.309 1.077-1.537 0-3.035-.313-4.494-.94-1.46-.614-2.564-1.41-3.313-2.39l2.48-3.446c1.394 1.58 3.086 2.37 5.076 2.37 1.485 0 2.641-.405 3.467-1.215.827-.796 1.24-1.932 1.24-3.407v-1.136c-1.291 1.475-2.99 2.213-5.095 2.213-2.519 0-4.559-.992-6.122-2.977-1.55-1.997-2.325-4.64-2.325-7.93v-.236Zm5.599.41c0 1.92.381 3.427 1.143 4.524.762 1.084 1.808 1.625 3.139 1.625 1.705 0 2.925-.646 3.661-1.938v-8.91c-.749-1.293-1.956-1.94-3.623-1.94-1.343 0-2.402.555-3.177 1.665-.762 1.11-1.143 2.768-1.143 4.974ZM119.87 62.298c0 3.264-.736 5.882-2.208 7.853-1.46 1.958-3.436 2.938-5.929 2.938-2.118 0-3.829-.745-5.134-2.233v9.988H101V51.508h5.192l.194 2.076c1.356-1.645 3.126-2.468 5.308-2.468 2.584 0 4.592.966 6.026 2.898 1.433 1.933 2.15 4.596 2.15 7.99v.294Zm-5.599-.411c0-1.971-.349-3.492-1.046-4.563-.685-1.07-1.686-1.606-3.003-1.606-1.757 0-2.964.68-3.623 2.037v8.675c.685 1.397 1.905 2.096 3.662 2.096 2.673 0 4.01-2.213 4.01-6.64ZM133.006 73.088c-3.074 0-5.58-.953-7.517-2.859-1.925-1.906-2.887-4.445-2.887-7.617v-.549c0-2.128.407-4.028 1.22-5.699.814-1.684 1.964-2.976 3.449-3.877 1.498-.914 3.203-1.37 5.115-1.37 2.867 0 5.121.913 6.761 2.74 1.654 1.828 2.48 4.42 2.48 7.775v2.311h-13.348c.18 1.384.723 2.494 1.627 3.33.917.835 2.073 1.253 3.468 1.253 2.157 0 3.842-.79 5.056-2.37l2.752 3.114c-.84 1.2-1.977 2.14-3.41 2.82-1.434.666-3.023.998-4.766.998Zm-.64-17.39c-1.11 0-2.014.38-2.712 1.136-.684.758-1.124 1.841-1.317 3.251h7.788v-.45c-.026-1.253-.362-2.22-1.007-2.898-.646-.692-1.563-1.038-2.752-1.038ZM143.952 61.907c0-2.102.4-3.976 1.201-5.62.801-1.646 1.951-2.919 3.449-3.82 1.511-.9 3.261-1.35 5.25-1.35 2.829 0 5.134.874 6.917 2.623 1.795 1.75 2.796 4.126 3.003 7.129l.038 1.449c0 3.25-.897 5.862-2.693 7.833-1.795 1.958-4.204 2.938-7.226 2.938-3.022 0-5.438-.98-7.246-2.938-1.795-1.958-2.693-4.622-2.693-7.99v-.255Zm5.599.41c0 2.011.375 3.552 1.124 4.622.749 1.058 1.821 1.587 3.216 1.587 1.356 0 2.415-.523 3.177-1.567.762-1.058 1.143-2.742 1.143-5.053 0-1.97-.381-3.498-1.143-4.582-.762-1.084-1.834-1.625-3.216-1.625-1.369 0-2.428.541-3.177 1.625-.749 1.07-1.124 2.735-1.124 4.994ZM186.129 62.298c0 3.264-.736 5.882-2.209 7.853-1.459 1.958-3.435 2.938-5.928 2.938-2.118 0-3.83-.745-5.134-2.233v9.988h-5.599V51.508h5.192l.194 2.076c1.356-1.645 3.125-2.468 5.308-2.468 2.583 0 4.592.966 6.026 2.898 1.433 1.933 2.15 4.596 2.15 7.99v.294Zm-5.599-.411c0-1.971-.349-3.492-1.046-4.563-.685-1.07-1.686-1.606-3.003-1.606-1.757 0-2.964.68-3.623 2.037v8.675c.684 1.397 1.905 2.096 3.662 2.096 2.673 0 4.01-2.213 4.01-6.64ZM195.525 72.697h-5.618v-30.08h5.618v30.08ZM209.804 73.088c-3.074 0-5.58-.953-7.517-2.859-1.925-1.906-2.887-4.445-2.887-7.617v-.549c0-2.128.407-4.028 1.221-5.699.813-1.684 1.963-2.976 3.448-3.877 1.499-.914 3.203-1.37 5.115-1.37 2.867 0 5.121.913 6.762 2.74 1.653 1.828 2.479 4.42 2.479 7.775v2.311h-13.348c.181 1.384.723 2.494 1.627 3.33.917.835 2.073 1.253 3.468 1.253 2.157 0 3.843-.79 5.057-2.37l2.751 3.114c-.84 1.2-1.976 2.14-3.41 2.82-1.434.666-3.022.998-4.766.998Zm-.639-17.39c-1.111 0-2.015.38-2.713 1.136-.684.758-1.123 1.841-1.317 3.251h7.788v-.45c-.026-1.253-.361-2.22-1.007-2.898-.646-.692-1.563-1.038-2.751-1.038Z"/><path fill="#04D361" d="M222 70.035c0-.9.297-1.632.891-2.193.607-.561 1.363-.842 2.267-.842.917 0 1.673.28 2.267.842.607.561.91 1.293.91 2.193 0 .888-.297 1.613-.891 2.174-.594.548-1.356.823-2.286.823-.917 0-1.673-.275-2.267-.823-.594-.561-.891-1.286-.891-2.174Z"/></svg>